{"glyphs":{"0":{"ha":635,"x_min":0,"x_max":0,"o":"m 169 -12 b 675 832 426 135 654 601 b 568 972 683 907 628 969 b 56 40 639 854 367 219 b 532 839 -37 186 281 701 b 468 926 533 882 513 911 b -69 156 194 785 -47 444 b 169 -12 -69 54 65 -51 z m 229 379 l 221 369 l 235 381 l 232 371 l 250 392 l 247 379 l 261 396 l 263 392 l 278 413 l 290 419 l 411 533 b 350 607 403 563 382 588 b 200 365 282 526 231 447 l 218 379 l 211 364 z "},"1":{"ha":703,"x_min":0,"x_max":0,"o":"m -154 3 b 224 53 -54 72 83 93 b 94 172 226 128 168 163 b 701 863 200 424 426 711 b 635 972 708 921 686 957 b 54 782 465 885 156 697 b 296 699 83 651 183 631 b -26 168 158 554 31 326 b -193 100 -89 157 -164 125 b -154 3 -199 61 -186 33 z "},"2":{"ha":900,"x_min":0,"x_max":0,"o":"m 38 3 b 639 51 210 61 493 156 b 357 200 656 176 521 219 b 896 767 593 335 813 524 b 783 964 918 850 853 935 b 336 771 664 1004 422 911 b 404 626 311 728 331 644 b 825 865 374 763 676 922 b -42 108 718 547 285 264 b 38 3 -36 57 -10 22 z "},"3":{"ha":813,"x_min":0,"x_max":0,"o":"m 0 172 b 667 463 153 -224 654 157 b 494 694 668 606 589 661 b 811 869 592 765 697 825 b 765 972 815 925 800 960 b 190 943 579 940 289 818 b 469 796 138 806 315 729 b 300 626 401 743 346 678 b 333 567 297 599 308 579 b 540 597 394 601 481 614 b 0 172 733 525 261 -100 z "},"4":{"ha":936,"x_min":0,"x_max":0,"o":"m 286 8 b 865 836 319 306 540 578 b 818 950 872 897 857 935 b 419 590 654 843 521 724 b 289 606 374 601 326 604 b 399 974 486 725 494 851 b 79 581 419 801 186 688 b 158 496 57 556 72 464 b 372 524 200 518 299 531 b 208 93 288 393 232 250 b 286 8 200 63 258 -21 z "},"5":{"ha":804,"x_min":0,"x_max":0,"o":"m -153 131 b 569 428 -65 -160 557 89 b 242 660 569 613 439 711 b 278 774 261 703 275 740 b 701 976 410 697 860 761 b 264 839 604 839 382 794 b 219 883 254 856 239 869 b 97 614 215 786 172 692 b 144 521 79 592 83 532 b 474 561 214 567 435 596 b -153 131 635 399 61 -28 z "},"6":{"ha":844,"x_min":0,"x_max":0,"o":"m 264 8 b 619 522 476 85 633 432 b 426 661 606 617 538 668 b 715 879 503 753 604 868 b 578 713 710 806 650 751 b 703 697 604 688 669 678 b 771 868 757 736 786 822 b 669 974 756 919 710 974 b 79 113 493 976 -8 486 b 264 8 107 47 190 -21 z m 158 92 b 325 535 158 247 219 394 b 547 540 414 603 561 610 b 158 92 504 361 322 108 z "},"7":{"ha":911,"x_min":0,"x_max":0,"o":"m 117 3 b 378 454 133 149 239 306 b 492 431 417 451 454 443 b 422 500 475 463 451 485 b 839 856 553 632 704 756 b 783 974 847 907 836 949 b 256 875 640 908 368 758 b 504 760 194 724 386 689 b 285 521 456 710 369 621 b 117 478 236 515 181 501 b 129 417 103 451 108 428 b 222 440 163 426 193 435 b 117 3 99 276 11 99 z "},"8":{"ha":908,"x_min":0,"x_max":0,"o":"m 188 10 b 435 374 365 51 485 253 b 825 750 521 507 813 710 b 731 964 869 860 803 946 b 279 649 631 1000 242 890 b -68 135 114 507 -89 351 b 188 10 -54 39 47 -25 z m 396 494 b 365 551 390 517 378 535 b 453 608 390 575 424 596 b 363 692 463 690 422 700 b 767 867 393 818 715 907 b 396 494 726 786 472 632 z m 17 79 b 315 513 0 224 165 400 b 17 79 468 274 261 89 z "},"9":{"ha":946,"x_min":0,"x_max":0,"o":"m 168 -7 b 868 844 319 319 558 601 b 836 960 888 900 872 938 l 725 867 l 714 858 l 732 876 l 713 863 l 728 879 l 704 861 l 724 879 l 710 869 l 722 885 l 700 867 l 714 883 l 638 839 b 560 942 633 889 610 924 b 69 557 331 910 72 701 b 167 429 76 507 119 447 b 546 701 303 481 428 579 b 85 29 347 489 163 269 b 168 -7 81 3 132 -15 z m 160 529 b 619 831 201 651 560 942 z "}," ":{"ha":278,"x_min":0,"x_max":0,"o":""},"!":{"ha":635,"x_min":0,"x_max":0,"o":"m 192 218 b 565 726 300 399 421 571 b 513 790 564 767 542 783 b 161 269 358 650 240 478 b 192 218 149 239 167 207 z m 104 -8 b 179 138 118 50 140 100 b 119 203 169 181 150 201 b 104 -8 69 132 44 1 z "},"\"":{"ha":396,"x_min":0,"x_max":0,"o":"m 69 615 b 193 786 132 567 194 686 b 94 794 163 815 131 818 b 69 615 106 731 94 671 z m 203 615 b 326 786 265 567 328 686 b 228 794 296 815 264 818 b 203 615 239 731 228 671 z "},"#":{"ha":844,"x_min":0,"x_max":0,"o":"m 328 32 b 451 221 361 94 403 160 b 717 182 543 217 633 203 b 715 247 747 203 750 225 b 503 285 649 265 576 278 b 567 353 524 308 544 331 b 750 319 631 346 692 335 b 750 386 781 342 785 364 b 626 413 710 397 669 406 b 747 510 665 447 707 481 b 696 551 750 546 736 564 b 542 422 643 514 590 471 b 467 428 517 425 492 426 b 581 518 504 461 542 492 b 529 560 583 556 569 572 b 369 426 475 522 419 476 b 133 386 289 422 208 410 b 115 333 103 382 94 347 b 306 358 175 346 239 354 b 242 279 283 333 261 307 b 99 247 193 272 146 263 b 82 194 68 243 60 208 b 197 214 118 203 157 208 b 132 89 172 174 150 132 b 161 42 115 63 138 35 b 278 221 193 100 232 161 b 376 224 310 222 343 224 b 299 81 346 178 319 129 b 328 32 282 54 304 25 z m 331 288 b 399 363 353 313 375 338 b 481 360 426 363 454 361 b 422 289 461 338 442 314 b 331 288 392 290 361 289 z "},"$":{"ha":732,"x_min":0,"x_max":0,"o":"m 321 -65 b 321 103 319 -10 319 47 b 346 410 504 233 421 315 b 394 656 357 492 374 572 b 518 725 431 683 474 707 b 610 751 549 747 583 758 b 418 421 501 638 346 508 b 468 365 428 399 443 379 l 581 475 l 568 471 l 619 529 l 613 526 l 626 543 l 617 536 l 642 565 l 622 554 l 640 572 l 621 557 l 642 583 l 475 463 b 663 679 515 540 667 654 b 606 790 658 740 626 792 b 511 763 575 789 543 779 b 478 801 504 779 493 792 b 432 786 463 797 447 793 b 464 878 442 817 453 847 l 408 925 b 368 750 393 867 381 808 b 246 631 321 718 278 676 b 306 426 203 556 254 489 b 274 190 293 347 282 269 b 140 96 229 154 179 122 l 226 336 l 210 311 l 258 404 l 235 372 l 254 407 l 207 335 l 256 418 l 176 290 l 257 429 b 69 93 188 321 115 214 b 201 32 71 67 132 6 b 261 64 224 43 243 54 l 253 -46 z m 311 458 b 338 601 283 504 299 556 b 311 458 328 553 319 506 z m 328 242 b 342 383 332 289 336 336 b 371 343 353 369 363 357 b 328 242 378 311 358 276 z "},"%":{"ha":936,"x_min":0,"x_max":0,"o":"m 124 -65 b 864 654 292 203 578 485 b 786 728 874 714 853 743 b 81 15 515 568 240 318 b 124 -65 51 -25 82 -74 z m 306 446 b 435 594 333 507 374 558 b 357 669 426 640 401 665 b 306 446 274 599 221 463 z m 458 39 b 588 188 486 100 526 151 b 510 263 581 233 554 258 b 458 39 426 192 374 56 z "},"&":{"ha":646,"x_min":0,"x_max":0,"o":"m 288 -81 b 289 94 286 -22 286 36 b 413 372 361 164 406 271 b 293 210 379 319 339 260 b 317 422 299 281 306 351 b 403 519 346 456 376 489 b 356 592 400 561 382 582 l 350 592 b 383 715 360 633 371 675 b 469 713 419 729 451 731 l 407 631 l 428 640 l 414 624 l 438 639 l 426 622 l 447 636 l 439 622 l 469 644 l 457 628 l 576 719 b 529 790 575 750 561 775 l 475 719 b 417 807 464 756 446 786 l 413 807 b 431 858 418 824 424 842 l 375 907 b 347 789 365 867 356 828 b 121 607 254 757 176 700 b 197 481 126 554 153 513 l 244 486 b 81 146 160 390 31 247 b 229 54 101 99 165 61 b 219 -61 225 15 222 -22 z m 186 554 b 325 689 200 594 261 651 l 304 589 b 186 554 272 582 231 569 z m 154 108 b 265 361 136 178 193 269 b 239 157 256 293 246 225 b 154 108 213 136 183 118 z "},"(":{"ha":496,"x_min":0,"x_max":0,"o":"m 172 -35 b 426 761 126 238 233 565 b 172 -35 100 799 -44 -69 z "},")":{"ha":449,"x_min":0,"x_max":0,"o":"m 69 -19 b 265 763 231 -158 551 628 b 69 -19 324 504 246 181 z "},"+":{"ha":635,"x_min":0,"x_max":0,"o":"m 222 49 b 338 349 242 144 283 250 b 544 299 410 342 482 325 b 549 363 569 318 574 339 b 372 408 494 385 435 400 b 472 546 403 458 436 504 b 414 565 464 576 447 586 b 304 415 375 519 338 469 b 93 386 235 417 163 408 b 76 336 71 383 63 350 b 271 354 136 350 203 356 b 182 79 226 267 193 174 b 222 49 174 53 201 36 z "},",":{"ha":117,"x_min":0,"x_max":0,"o":"m 28 -78 b 60 183 115 13 158 175 b -69 -3 36 110 -6 47 b 28 -78 -56 -54 -22 -79 z "},"-":{"ha":671,"x_min":0,"x_max":0,"o":"m 582 268 b 582 367 607 300 610 332 b 93 367 433 440 253 457 b 79 288 68 360 63 308 b 582 268 229 350 425 346 z "},".":{"ha":271,"x_min":0,"x_max":0,"o":"m 135 0 b 201 76 172 0 201 35 b 135 153 201 118 172 153 b 69 76 99 153 69 118 b 135 0 69 35 99 0 z "},"/":{"ha":858,"x_min":0,"x_max":0,"o":"m 124 -7 b 788 718 269 257 525 542 b 710 785 794 775 772 803 b 79 68 461 617 214 364 b 124 -7 53 28 85 -17 z "},":":{"ha":376,"x_min":0,"x_max":0,"o":"m 189 399 b 307 535 214 454 251 501 b 236 604 300 578 276 600 b 189 399 158 539 110 414 z m 110 71 b 228 208 135 126 172 174 b 157 276 221 250 197 274 b 110 71 79 213 31 86 z "},";":{"ha":325,"x_min":0,"x_max":0,"o":"m 179 451 b 256 528 221 451 256 486 b 179 604 256 569 221 604 b 103 528 138 604 103 569 b 179 451 103 486 136 451 z m 135 72 b 239 268 150 146 182 213 b 135 332 219 318 185 339 b 135 72 60 232 36 68 z "},"<":{"ha":508,"x_min":0,"x_max":0,"o":"m 325 149 b 149 382 346 264 235 329 b 386 682 329 454 540 650 b 76 424 322 572 179 478 b 325 149 31 294 231 297 z "},">":{"ha":508,"x_min":0,"x_max":0,"o":"m 122 149 b 433 407 186 258 329 351 b 183 682 478 536 278 533 b 360 449 163 565 274 501 b 122 149 181 376 -31 179 z "},"?":{"ha":583,"x_min":0,"x_max":0,"o":"m 121 215 b 494 614 160 392 403 486 b 465 774 539 697 496 746 b 151 550 368 838 88 708 b 478 708 211 669 371 767 b 121 215 458 608 11 433 z m 121 -7 b 161 139 121 44 133 94 b 90 169 143 169 119 181 b 121 -7 57 93 61 -21 z "},"@":{"ha":1107,"x_min":0,"x_max":0,"o":"m 350 -118 b 878 653 -81 3 300 722 b 560 17 1107 619 892 192 b 849 474 542 176 719 367 b 790 544 847 511 832 539 b 706 488 757 532 731 511 b 590 565 689 536 646 557 b 231 146 408 506 263 340 b 313 35 225 104 247 38 l 503 231 b 468 101 485 189 471 147 b 622 -26 454 36 494 -87 b 825 739 1200 347 1081 714 b 350 -118 339 836 -310 3 z m 311 115 b 640 497 356 278 485 422 b 675 454 658 490 669 475 l 597 375 z "},"A":{"ha":508,"x_min":0,"x_max":0,"o":"m 364 -54 b 442 129 399 7 425 68 l 446 142 l 438 133 l 444 156 l 415 121 l 417 125 l 407 110 l 403 106 l 404 117 l 393 100 l 393 103 l 381 82 l 372 76 b 689 803 438 338 547 579 b 618 868 671 836 650 861 b 557 778 597 839 576 808 b 501 854 553 808 533 833 b 497 861 500 857 499 858 l 494 858 b 493 860 494 860 493 860 l 488 856 b 317 732 419 821 361 781 l 329 736 l 315 726 l 328 732 l 324 728 l 333 731 l 325 725 l 333 729 l 340 731 l 325 719 l 354 728 l 354 726 l 356 728 l 396 738 b 100 324 290 608 189 472 l 46 319 l 138 456 l 92 418 l 100 439 l 88 426 l 93 442 l 79 428 l 86 438 l 75 428 l 78 436 l 64 419 l 67 431 l 56 417 l 56 419 l 42 403 l 33 397 l -60 306 b -47 263 -57 290 -53 276 b -24 213 -40 246 -33 229 l 40 221 b -83 -50 -6 133 -47 44 b 4 -99 -61 -79 -32 -96 l 75 -8 l 81 0 l 176 121 l 142 92 b 153 114 146 99 149 107 l 136 103 l 143 117 l 128 103 l 135 113 l 122 103 l 125 111 l 108 94 l 111 106 l 99 93 l 99 96 l 85 81 b 168 236 108 133 135 179 l 310 254 b 242 -65 278 150 256 44 b 343 -104 265 -92 294 -110 z m 229 336 b 524 724 318 471 419 599 b 340 346 450 603 388 476 z "},"B":{"ha":528,"x_min":0,"x_max":0,"o":"m 188 -61 b 521 268 331 18 501 119 b 404 443 525 358 479 432 b 635 619 497 479 613 539 b 579 840 661 713 628 803 b 181 726 457 913 267 817 b 211 633 175 688 185 657 b 390 758 239 683 313 731 b -60 1 164 554 10 304 l 0 -36 b -69 -26 -28 -40 -53 -37 b 188 -61 -28 -121 57 -126 z m 264 472 b 457 701 319 551 383 628 l 397 760 b 604 747 483 789 574 793 b 264 472 624 656 432 546 z m 26 -32 b 182 344 61 97 111 222 l 201 322 b 475 351 297 365 408 382 b 26 -32 476 239 194 10 z "},"C":{"ha":628,"x_min":0,"x_max":0,"o":"m 326 -83 b 524 293 392 -32 517 153 b 440 357 503 331 474 349 b 183 -58 426 178 296 -21 b 611 799 47 190 314 571 b 689 806 638 813 664 815 b 394 475 647 681 529 557 b 747 679 518 303 696 564 b 685 832 771 742 724 815 b 599 818 657 840 626 836 b 544 868 586 838 568 854 b 113 -46 218 664 -97 189 b 326 -83 147 -82 256 -135 z m 231 157 l 226 139 l 242 158 l 236 146 l 249 160 l 247 150 l 263 174 l 263 160 l 275 179 l 275 176 l 290 200 l 301 208 l 411 344 b 338 413 399 374 374 397 b 215 139 278 319 235 229 z "},"D":{"ha":608,"x_min":0,"x_max":0,"o":"m 15 -100 l 36 -49 b 183 -37 79 -67 125 -62 b 674 558 474 132 638 388 b 599 832 690 672 656 769 b 199 754 521 917 300 839 b 231 660 199 718 208 683 b 357 729 265 689 310 713 b -81 -51 167 493 18 225 b 15 -100 -62 -94 -26 -114 z m 75 38 b 518 757 188 289 328 546 b 633 718 564 754 606 742 b 75 38 563 417 299 144 z m 290 321 l 281 310 l 296 321 l 293 311 l 314 331 l 310 318 l 326 333 l 326 331 l 346 350 l 360 356 l 497 463 b 442 546 492 494 474 522 b 258 308 363 469 300 390 l 278 322 l 271 306 z "},"E":{"ha":606,"x_min":0,"x_max":0,"o":"m 232 -92 l 224 -101 l 239 -92 l 235 -100 l 256 -83 l 251 -96 l 268 -81 l 268 -85 l 288 -67 l 300 -62 l 358 -24 b 425 22 383 -10 407 6 l 439 31 l 439 35 b 440 38 439 36 440 36 b 431 63 439 46 435 56 b 390 114 422 82 410 99 b 388 111 390 114 389 113 l 383 114 l 86 32 b 249 349 135 142 188 247 l 429 400 b 371 322 407 375 388 349 l 367 317 l 368 317 b 360 303 365 313 363 308 l 379 315 l 371 300 l 390 314 l 381 304 l 396 314 l 393 304 l 414 322 l 410 310 l 426 324 l 426 321 l 446 339 l 458 343 l 499 369 b 607 443 542 390 582 415 b 549 519 596 478 576 501 b 549 519 549 519 549 519 l 317 456 b 542 742 383 554 457 649 l 664 763 b 635 728 654 751 644 740 l 588 685 b 607 690 594 688 600 689 b 581 649 597 676 589 663 l 600 661 l 592 646 l 611 658 l 601 649 l 618 658 l 614 650 l 635 667 l 631 654 l 647 669 l 647 665 l 667 683 l 679 689 l 739 729 b 840 783 779 743 815 761 b 792 867 835 819 817 846 l 771 864 b 769 865 771 864 771 864 l 767 863 l 511 822 l 497 842 b 474 817 489 833 481 825 l 314 790 b 357 710 317 758 325 708 l 385 714 b 164 414 303 618 229 518 l 82 392 b 111 324 86 368 94 338 b -39 -3 51 219 1 111 l -83 -14 b -31 -90 -76 -46 -64 -94 l 272 -3 b 233 -53 258 -18 246 -35 l 201 -89 b 211 -85 204 -87 208 -86 l 201 -101 l 221 -90 l 213 -104 z "},"F":{"ha":556,"x_min":0,"x_max":0,"o":"m 17 -103 b 232 329 76 44 147 190 l 376 376 b 322 293 356 349 338 321 l 318 288 l 319 289 l 311 274 l 329 286 l 322 271 l 340 285 l 332 274 l 346 285 l 342 275 l 363 293 l 358 281 l 374 296 l 374 292 l 393 311 l 406 315 l 443 343 b 546 421 485 365 522 392 b 492 501 536 457 517 483 l 304 444 b 531 736 372 546 447 643 l 660 758 b 629 721 649 746 639 733 l 579 676 l 600 681 b 572 638 590 667 581 653 l 593 650 l 583 635 l 604 649 l 594 638 l 611 649 l 607 639 l 629 657 l 624 644 l 642 660 l 642 656 l 663 675 l 676 679 l 739 722 b 846 781 782 738 819 757 b 794 867 839 818 821 846 l 774 864 b 771 865 772 864 772 865 l 768 863 l 499 821 l 483 842 l 458 814 l 290 788 b 336 701 293 753 301 700 l 365 707 b 136 393 281 607 204 501 l 47 367 b 75 293 51 342 60 307 b -83 -54 13 182 -40 67 b 17 -103 -72 -83 -22 -111 z "},"G":{"ha":703,"x_min":0,"x_max":0,"o":"m 179 -211 l 213 -165 l 210 -179 l 235 -136 b 613 263 342 3 465 140 b 576 367 617 303 607 339 b 189 356 457 360 254 326 b 622 738 307 507 472 647 l 504 549 l 519 529 l 569 457 l 779 665 l 769 663 l 846 744 l 836 742 l 900 818 l 879 807 l 892 825 l 708 681 l 719 697 l 676 660 l 675 658 b 613 835 685 750 651 806 b -50 -18 299 731 -149 218 b 154 -135 -19 -89 57 -143 b 161 -131 156 -133 158 -132 l 142 -165 l 150 -161 l 103 -261 l 110 -256 l 72 -347 l 89 -332 l 82 -353 z m 39 -75 b 168 328 8 44 67 189 b 372 253 171 232 256 232 b 39 -75 275 117 140 -83 z "},"H":{"ha":663,"x_min":0,"x_max":0,"o":"m 61 -104 l 64 -100 l 179 39 l 174 38 l 217 92 l 211 90 l 246 140 l 235 133 l 242 144 l 139 43 l 146 56 l 122 29 b 269 308 168 125 217 218 b 436 339 325 321 381 331 b 264 -47 364 215 304 86 b 344 -104 278 -81 304 -99 b 346 -100 346 -103 346 -101 l 463 39 l 457 38 l 499 92 l 494 90 l 529 140 l 518 133 l 525 144 l 422 43 l 428 56 l 406 29 b 904 781 535 303 690 553 b 838 868 893 814 869 843 l 835 872 l 686 774 l 692 774 l 638 735 l 642 736 l 596 697 l 608 701 l 597 692 l 721 756 l 713 747 l 742 764 b 496 436 654 660 571 551 b 336 417 444 432 392 425 b 621 781 419 544 513 665 b 554 868 610 814 586 843 l 551 872 l 403 774 l 408 774 l 354 735 l 360 736 l 313 697 l 325 701 l 315 692 l 439 756 l 429 747 l 458 764 b 182 389 360 646 264 521 b 94 368 153 382 124 376 l 106 393 l 128 413 l 115 407 l 128 418 l 117 417 l 146 440 b 136 438 146 440 135 436 b 160 460 138 438 160 460 l 132 440 l 156 465 l 124 442 l 149 469 l -56 319 b 4 235 -44 272 -24 244 b 114 269 42 247 78 258 b -19 -47 58 167 14 61 b 61 -104 -6 -81 21 -99 z "},"I":{"ha":567,"x_min":0,"x_max":0,"o":"m 718 883 b 864 1124 785 963 835 1042 l 847 1108 l 853 1124 l 836 1108 l 843 1119 l 831 1107 l 832 1117 l 815 1096 l 817 1108 l 804 1092 l 803 1096 l 788 1075 l 775 1068 l 629 917 b 718 883 638 888 671 882 z m 257 -99 l 253 -103 l 260 -99 l 257 -103 l 269 -96 l 267 -101 l 275 -96 l 275 -97 l 285 -90 l 292 -89 l 365 -51 b 365 -51 365 -51 365 -51 b 335 53 371 -15 363 19 b 182 53 282 56 232 56 b 646 763 293 339 450 572 b 739 763 678 764 708 764 b 685 707 718 744 700 726 l 696 711 l 690 706 l 700 710 l 696 706 l 704 710 l 701 706 l 713 713 l 710 707 l 718 713 l 718 711 l 729 719 l 735 721 l 808 757 b 808 758 808 757 808 757 b 778 861 814 793 806 828 b 407 829 650 868 526 857 b 433 868 417 842 426 854 l 425 863 l 429 869 l 419 863 l 424 868 l 417 864 l 418 868 l 407 860 l 410 865 l 401 858 l 401 860 l 392 851 l 386 849 l 318 806 l 317 806 b 349 706 308 768 321 725 b 478 740 393 719 436 732 b 68 40 286 544 143 315 b -36 21 33 35 -1 29 b -10 60 -26 33 -17 46 l -19 54 l -15 61 l -25 54 l -19 60 l -28 54 l -25 58 l -36 50 l -33 57 l -42 50 l -42 51 l -51 43 l -58 40 l -125 -3 l -126 -3 b -94 -103 -135 -40 -122 -83 b 294 -46 46 -57 174 -42 b 242 -101 275 -64 257 -82 l 251 -97 l 247 -104 z "},"J":{"ha":486,"x_min":0,"x_max":0,"o":"m 656 900 b 813 1160 726 986 781 1072 l 794 1144 l 800 1161 l 782 1143 l 790 1156 l 775 1143 l 778 1153 l 760 1131 l 761 1144 l 747 1126 l 746 1131 l 729 1108 l 717 1100 l 557 936 b 656 900 567 906 603 899 z m 69 -104 b 589 757 172 -61 453 433 b 708 754 631 760 669 758 b 646 690 685 733 663 713 l 657 694 l 651 688 l 663 693 l 657 689 l 665 693 l 663 688 l 675 696 l 672 690 l 682 696 l 682 694 l 693 703 l 700 704 l 779 743 l 779 744 b 756 857 786 782 781 821 b 328 824 608 876 467 864 b 351 714 318 785 328 738 b 464 743 390 726 428 736 b -7 -39 325 438 89 26 b 204 374 -24 119 71 257 b 82 401 171 417 133 410 b -126 -21 -69 294 -119 135 b 69 -104 -112 -58 -14 -101 z "},"K":{"ha":614,"x_min":0,"x_max":0,"o":"m 14 -104 b 21 -94 17 -101 18 -99 l 36 -99 l 147 93 l 119 71 l 140 126 l 125 113 l 129 128 l 114 111 l 121 122 l 108 111 l 111 119 l 96 100 l 97 111 l 85 96 l 85 99 l 71 78 l 63 74 b 154 268 89 140 119 206 b 396 -85 281 203 365 61 b 276 301 476 68 403 231 b 808 667 481 369 692 500 b 768 821 850 733 806 790 b 224 378 732 674 432 482 b 571 769 318 518 436 647 b 489 863 564 811 536 843 l 464 849 b 221 717 368 814 286 771 l 243 721 l 229 710 l 253 715 l 240 710 l 258 713 l 251 706 l 278 715 l 269 704 l 290 713 l 289 708 l 314 719 l 328 718 l 350 724 b -83 -39 126 507 -15 253 b -19 -81 -65 -56 -44 -69 b 14 -104 -10 -89 1 -97 z "},"L":{"ha":492,"x_min":0,"x_max":0,"o":"m -79 -104 b 244 31 22 -49 129 -1 l 168 -62 l 196 -42 l 174 -67 l 208 -42 l 199 -60 l 217 -40 l 211 -53 l 231 -36 l 225 -44 l 256 -21 l 247 -31 l 310 13 l 308 4 l 388 68 b 333 143 381 104 363 131 b 101 81 258 131 182 110 b 589 788 203 350 365 585 b 531 865 586 829 564 851 l 528 861 b 525 867 526 863 526 865 b 315 754 443 838 372 800 l 335 757 l 324 749 l 343 753 l 332 749 l 347 751 l 342 746 l 363 753 l 356 744 l 372 750 l 372 749 l 392 757 l 404 756 l 415 758 b -1 76 206 551 74 321 b 19 46 -3 64 4 53 b -124 -28 -31 24 -79 0 b -79 -104 -125 -61 -112 -87 z "},"M":{"ha":854,"x_min":0,"x_max":0,"o":"m 33 -104 l 33 -103 b 176 86 96 -42 144 21 l 161 75 l 167 88 l 151 75 l 158 85 l 146 75 l 149 83 l 132 67 l 136 78 l 122 65 l 122 68 l 107 51 l 97 47 l 86 39 b 468 619 174 251 303 444 b 397 425 432 553 407 489 b 513 335 410 383 446 351 l 703 496 b 449 -31 578 332 485 158 b 538 -89 467 -67 494 -89 b 539 -87 538 -89 539 -87 l 540 -89 b 683 100 603 -28 651 35 l 668 89 l 674 103 l 658 90 l 665 99 l 654 90 l 657 97 l 640 82 l 643 92 l 631 79 l 631 82 l 615 67 l 604 61 l 578 42 b 1094 746 674 304 850 538 b 1026 847 1083 790 1063 825 l 507 435 b 681 754 547 539 608 646 b 575 865 669 817 635 853 b -56 -44 289 638 65 347 b 33 -104 -40 -85 -8 -103 z "},"N":{"ha":711,"x_min":0,"x_max":0,"o":"m -86 -104 l -85 -104 b 72 46 -19 -58 35 -8 l 57 39 l 65 49 l 49 40 l 57 47 l 44 42 l 49 47 l 31 36 l 35 44 l 21 35 l 22 38 l 6 25 l -4 22 l -37 6 b 329 574 58 210 182 397 b 226 29 283 392 244 208 b 353 -6 257 -3 296 -19 b 947 806 522 285 713 561 b 867 865 938 839 911 858 l 865 865 b 676 758 792 838 728 801 l 694 763 l 683 753 l 701 758 l 692 753 l 706 756 l 700 751 l 721 758 l 714 750 l 729 756 l 728 754 l 747 761 l 757 761 l 779 768 b 335 144 613 575 454 372 b 474 692 368 326 414 510 b 392 768 451 731 424 756 l 390 757 b 364 776 382 764 374 769 b -167 -53 139 535 -39 260 b -86 -104 -157 -87 -126 -101 z "},"O":{"ha":686,"x_min":0,"x_max":0,"o":"m 233 -96 b 726 729 483 49 706 503 b 624 867 735 801 681 863 b 121 -44 692 750 426 131 b 588 736 32 99 342 601 b 525 821 589 778 568 806 b 0 68 258 682 22 350 b 233 -96 0 -31 132 -135 z m 292 288 l 283 276 l 297 288 l 294 279 l 313 299 l 310 286 l 324 303 l 324 299 l 339 319 l 351 326 l 468 436 b 410 508 461 465 440 489 b 264 272 343 431 293 353 l 281 288 l 275 271 z "},"P":{"ha":589,"x_min":0,"x_max":0,"o":"m -7 -104 b 192 285 51 25 115 156 b 679 549 318 257 585 417 b 590 857 739 721 649 825 b 146 688 500 894 247 817 b 192 606 149 653 157 631 b 397 742 239 654 317 707 b -85 -58 182 482 15 217 b -7 -104 -60 -87 -43 -104 z m 249 376 b 492 693 319 485 399 590 b 454 763 486 725 478 746 b 644 740 528 783 599 783 b 249 376 674 597 403 426 z "},"Q":{"ha":597,"x_min":0,"x_max":0,"o":"m 150 -96 b 336 69 215 -58 278 0 b 528 -53 413 42 482 1 b 404 161 553 44 490 115 b 642 728 535 350 629 585 b 539 864 650 800 596 861 b 290 204 586 783 469 453 b 165 222 246 215 203 222 b 158 106 138 188 135 149 b 208 100 175 104 192 103 b 38 -44 154 40 97 -11 b 503 733 -51 99 258 600 b 440 819 504 776 483 804 b -83 68 174 681 -61 350 b 150 -96 -83 -31 49 -135 z m 207 286 l 200 276 l 213 288 l 211 278 l 228 299 l 225 286 l 239 301 l 239 299 l 256 319 l 267 325 l 385 435 b 325 507 376 464 357 488 b 179 272 258 429 210 351 l 196 286 l 190 271 z "},"R":{"ha":557,"x_min":0,"x_max":0,"o":"m 17 -99 b 104 221 28 13 57 118 b 454 -47 263 183 386 88 b 240 282 503 94 371 211 b 638 611 410 383 593 492 b 535 857 651 700 600 819 b 40 631 383 906 153 775 b 106 535 42 586 64 554 b 333 719 119 593 224 671 b -83 -68 111 492 -56 240 b 17 -99 -58 -107 -24 -110 z m 185 367 b 439 657 250 468 335 564 b 386 740 435 692 417 719 b 583 743 465 767 542 775 b 185 367 568 603 318 444 z "},"S":{"ha":542,"x_min":0,"x_max":0,"o":"m 68 -96 b 213 425 529 146 324 264 b 464 769 124 550 288 700 b 578 803 503 799 544 813 b 339 390 443 661 249 500 b 401 321 350 363 369 339 l 542 458 l 526 451 l 590 526 l 582 521 l 599 543 l 586 533 l 618 572 l 594 557 l 615 579 l 592 560 l 618 594 l 410 443 b 644 714 460 539 649 682 b 572 851 639 790 599 854 b 454 818 533 850 494 838 b 413 867 446 838 433 854 b 122 653 303 839 192 751 b 279 293 46 514 218 399 b -8 -15 303 188 104 58 l 99 285 l 78 253 l 138 369 l 108 329 l 133 374 l 74 282 l 135 388 l 38 226 l 138 401 b -97 -18 50 265 -40 132 b 68 -96 -96 -51 -19 -129 z "},"T":{"ha":490,"x_min":0,"x_max":0,"o":"m 97 -104 b 233 97 149 -42 196 25 l 224 88 l 253 128 l 236 114 l 247 128 l 235 117 l 243 132 l 231 118 b 243 135 229 118 243 135 l 228 121 l 244 144 l 221 119 l 229 129 l 136 51 b 561 694 238 276 372 494 b 675 701 600 699 638 700 l 613 640 l 674 665 l 643 649 l 674 658 l 661 649 l 699 664 l 685 654 l 717 668 l 704 657 l 731 668 l 717 657 l 768 682 l 761 671 l 847 710 b 817 811 847 746 839 779 b 311 769 646 813 478 799 b 378 864 336 800 358 832 l 360 853 l 367 867 l 349 854 l 357 864 l 343 856 l 347 864 l 326 847 l 331 858 l 315 844 l 315 849 l 297 832 l 285 826 l 157 740 l 157 738 b 194 636 156 689 168 656 b 403 675 264 651 333 665 b 0 -37 210 464 74 226 b 97 -104 19 -72 54 -93 z "},"U":{"ha":551,"x_min":0,"x_max":0,"o":"m 243 -104 l 243 -103 b 414 117 318 -33 375 40 l 394 104 l 403 119 l 385 106 l 393 115 l 378 104 l 382 114 l 363 96 l 365 108 l 351 93 l 350 96 l 332 78 l 321 72 l 276 39 b 811 743 357 290 547 526 b 775 868 824 804 813 846 b 532 736 679 835 597 790 l 553 740 l 540 729 l 563 735 l 551 729 l 568 732 l 561 726 l 586 735 l 578 725 l 599 732 l 597 729 l 610 735 b 165 83 404 549 260 329 l 10 26 b 513 765 90 296 282 532 b 467 863 511 810 492 840 b 465 867 465 864 465 865 b 464 865 464 867 464 867 l 463 867 b 460 865 461 867 461 865 b 221 733 365 831 285 788 l 242 738 l 229 726 l 251 732 l 240 726 l 257 731 l 250 724 l 276 732 l 268 722 l 288 731 l 286 726 l 310 736 l 324 736 l 335 739 b -51 -24 88 475 -176 96 b 1 -103 -43 -54 -26 -81 l 154 -14 b 243 -104 161 -71 190 -101 z "},"V":{"ha":460,"x_min":0,"x_max":0,"o":"m 13 -103 b 810 789 231 279 501 568 b 725 865 797 832 771 860 b 724 868 725 867 725 867 b 508 819 642 864 569 849 l 526 818 l 514 813 l 533 811 l 522 810 l 538 808 l 531 804 l 551 806 l 543 799 l 561 800 l 560 797 l 581 800 l 590 796 l 628 794 b -3 82 383 599 172 363 b 385 707 53 311 182 519 b 301 781 382 758 354 783 l 301 779 b 300 781 301 781 300 781 b 104 671 224 753 158 717 l 122 674 l 111 664 l 129 668 l 119 664 l 133 667 l 128 661 l 149 668 l 142 660 l 157 665 l 157 663 l 175 671 l 186 671 l 194 672 b -108 -46 -17 446 -137 207 b 13 -103 -108 -74 -37 -110 z "},"W":{"ha":746,"x_min":0,"x_max":0,"o":"m 36 -93 b 369 344 122 60 233 206 b 328 -11 293 153 271 25 l 315 -36 b 400 -78 332 -67 360 -76 b 1100 779 582 258 804 547 b 1040 868 1097 824 1082 857 b 401 114 760 642 543 393 b 567 503 432 236 488 367 b 478 574 551 550 521 574 l 436 489 b 32 60 285 367 150 222 b 499 738 118 294 281 526 b 410 814 492 781 468 811 b -106 -69 167 550 -92 264 b 36 -93 -85 -100 -21 -117 z "},"X":{"ha":683,"x_min":0,"x_max":0,"o":"m -54 -94 b 290 296 53 43 167 174 b 436 -90 319 175 361 61 b 546 -74 482 -111 519 -108 b 392 393 465 101 422 235 b 860 763 533 524 688 646 b 813 867 881 822 861 854 b 372 517 654 756 507 639 b 335 814 360 603 347 700 b 211 796 283 842 244 828 b 265 418 232 640 247 521 b -126 -40 118 274 -14 122 b -54 -94 -126 -75 -103 -94 z "},"Y":{"ha":594,"x_min":0,"x_max":0,"o":"m 47 -104 b 201 75 106 -50 157 10 l 189 69 l 201 81 l 189 74 l 214 100 l 190 81 l 218 111 l 185 83 l 221 119 l 203 108 l 222 131 l 203 117 l 226 146 l 97 33 b 279 303 144 128 207 217 l 288 288 l 286 299 l 297 285 l 290 300 l 300 294 l 293 308 l 313 289 l 303 310 l 313 299 l 307 315 l 317 303 l 311 324 l 318 310 l 317 332 l 326 303 b 321 350 324 319 322 335 b 804 769 457 503 626 643 b 732 861 794 826 767 851 b 304 493 579 761 432 633 b 278 832 294 601 285 715 b 167 858 240 868 204 872 b 233 410 175 682 196 529 b -35 -62 113 260 17 97 b 47 -104 -17 -86 10 -101 z "},"Z":{"ha":606,"x_min":0,"x_max":0,"o":"m 210 -86 l 200 -99 l 215 -86 l 213 -96 l 233 -74 l 231 -87 l 247 -71 l 247 -74 l 267 -51 l 281 -46 l 342 7 b 446 79 383 28 421 53 b 382 160 435 117 413 142 l 360 153 b 358 154 360 153 358 153 l 356 151 l -6 44 b 263 356 75 156 164 260 l 417 375 b 379 336 403 363 390 349 l 319 289 l 342 293 b 308 247 331 278 318 263 l 332 260 l 321 243 l 346 257 l 333 247 l 353 257 l 347 247 l 374 267 l 367 251 l 388 268 l 388 264 l 413 283 l 428 289 l 503 332 b 626 392 551 347 594 367 b 576 489 622 432 604 464 l 551 486 b 550 488 551 486 550 488 l 546 485 l 388 467 b 846 758 522 578 674 675 b 821 867 858 808 849 843 b 271 835 649 878 336 742 b 617 753 221 653 425 694 b 206 446 467 663 329 561 l 4 424 b 50 328 6 385 10 328 l 94 333 b -160 -21 -3 226 -87 110 b -118 -44 -149 -32 -135 -40 b -76 -72 -110 -62 -96 -75 l 254 31 b 226 -11 244 17 235 3 l 181 -62 l 200 -54 b 176 -101 192 -71 183 -86 l 197 -86 l 189 -104 z "},"[":{"ha":700,"x_min":0,"x_max":0,"o":"m 107 -35 b 285 -12 165 -7 225 -1 b 143 72 311 49 228 78 b 482 668 213 276 338 499 b 626 676 531 683 578 685 b 489 761 651 736 571 767 b 431 751 472 767 453 763 b 72 56 261 569 126 319 b 79 13 67 39 69 24 b 107 -35 82 -4 90 -19 z "},"\\":{"ha":447,"x_min":0,"x_max":0,"o":"m 321 24 b 378 64 344 3 383 26 b 149 794 375 325 276 592 b 69 772 108 829 83 815 b 321 24 206 557 300 265 z "},"]":{"ha":700,"x_min":0,"x_max":0,"o":"m 213 -32 b 269 -22 228 -37 249 -35 b 628 672 440 160 575 408 b 622 715 635 690 631 706 b 593 764 619 732 610 749 b 415 740 535 736 475 731 b 557 657 390 681 474 650 b 218 61 488 453 364 231 b 74 53 171 46 122 44 b 213 -32 49 -7 129 -37 z "},"^":{"ha":671,"x_min":0,"x_max":0,"o":"m 69 581 b 301 810 178 574 263 725 b 601 628 388 654 592 483 b 331 882 494 674 392 793 b 69 581 221 921 194 683 z "},"a":{"ha":367,"x_min":0,"x_max":0,"o":"m 181 1 b 193 3 185 1 189 1 l 199 3 l 285 208 l 274 199 l 282 222 l 228 157 b 432 617 269 315 338 469 l 435 621 l 432 625 b 379 674 418 653 401 668 l 374 675 l 371 669 l 339 624 b 297 667 332 640 318 654 l 292 671 l 221 583 b 24 306 142 485 76 394 l -87 288 l -85 279 b -62 219 -81 260 -74 240 l -60 214 l -26 218 b -103 50 -56 163 -81 106 l -104 46 l -101 42 b -37 6 -85 19 -62 8 l -32 6 l 133 217 l 22 124 b 79 232 39 161 56 193 l 158 243 b 117 38 139 175 125 106 l 117 33 l 118 31 b 181 1 136 11 156 1 z m 132 317 b 260 489 174 378 218 438 b 185 321 231 433 206 378 z "},"b":{"ha":389,"x_min":0,"x_max":0,"o":"m 26 1 b 128 32 54 1 88 11 l 129 32 b 360 263 238 93 346 161 l 360 264 b 296 383 363 321 338 367 b 436 500 378 419 425 458 b 436 594 444 532 444 564 b 396 660 429 622 414 646 b 114 582 310 711 176 647 l 111 579 l 111 576 b 135 507 107 547 115 524 l 143 500 l 147 508 b 224 571 160 531 188 553 b 63 369 160 508 106 442 b -51 83 10 282 -29 186 l -53 78 l -31 64 b -46 71 -37 65 -42 67 l -69 86 l -58 60 b -6 7 -46 33 -28 15 b 26 1 4 3 14 1 z m 200 422 b 314 553 233 468 272 511 l 319 558 l 282 594 b 400 586 339 611 383 608 b 200 422 408 538 307 472 z m 26 71 b 122 301 49 151 81 229 l 132 290 l 136 293 b 311 315 204 322 271 331 b 206 178 308 282 268 231 b 26 71 146 128 78 88 z "},"c":{"ha":375,"x_min":0,"x_max":0,"o":"m 90 1 b 126 8 103 1 115 4 l 128 8 l 129 10 b 296 268 210 81 265 168 l 297 272 l 294 276 b 235 311 281 293 261 306 l 228 313 l 225 307 b 63 57 182 211 131 107 b 131 313 47 115 72 210 b 351 569 188 413 269 507 b 226 422 325 514 283 464 l 221 418 l 224 411 b 281 368 239 382 258 367 b 379 453 310 369 343 399 b 443 582 410 500 433 551 l 444 583 l 443 585 b 363 675 439 626 397 664 l 360 675 l 356 674 b 89 417 253 611 158 521 b -24 78 14 304 -25 188 b 19 22 -21 58 -4 38 b 90 1 42 8 67 1 z "},"d":{"ha":389,"x_min":0,"x_max":0,"o":"m -12 1 b 7 6 -7 1 0 3 l 10 6 l 11 10 b 22 36 15 18 19 28 b 54 32 32 33 43 32 b 121 47 74 32 96 38 l 121 49 b 353 250 211 101 292 171 b 454 454 406 319 442 392 b 403 646 465 526 447 597 b 315 672 383 665 354 675 l 314 675 l 311 672 b 265 665 297 671 282 668 b 122 594 214 651 158 625 l 119 592 l 119 588 b 143 518 118 560 126 535 l 147 513 l 154 518 b 208 551 169 531 188 542 b -68 49 90 400 -4 228 l -69 44 l -68 42 b -12 1 -57 17 -36 1 z m 60 122 b 346 581 147 315 240 463 b 411 560 371 579 394 574 b 60 122 365 375 207 200 z "},"e":{"ha":453,"x_min":0,"x_max":0,"o":"m 138 -1 l 132 -15 l 150 0 l 147 -10 l 168 8 l 168 6 l 194 29 l 201 32 l 242 58 b 288 89 258 68 275 78 l 300 99 l 300 101 l 301 104 l 301 108 l 293 126 b 264 164 288 140 278 153 l 260 169 l 257 167 l 256 167 l 68 115 b 169 310 99 183 132 249 l 263 336 b 239 303 254 325 246 314 l 217 276 l 225 279 l 215 263 l 225 268 l 204 246 l 244 271 l 239 258 l 257 272 l 253 263 l 275 282 l 275 279 l 300 301 l 308 306 l 336 324 b 410 374 365 338 393 354 l 414 378 l 413 382 b 371 438 406 406 392 424 l 369 438 l 365 442 l 363 439 l 228 401 b 365 574 269 461 315 518 l 422 583 l 418 576 l 364 528 l 386 533 b 381 522 385 529 382 526 l 364 494 l 374 500 l 353 478 l 393 504 l 388 490 l 406 506 l 403 496 l 424 514 l 424 511 l 449 535 l 457 538 l 497 565 b 567 603 529 576 551 589 l 571 606 l 569 611 b 535 671 565 635 554 656 l 532 674 l 518 671 l 514 674 l 510 669 l 344 643 l 332 661 l 325 654 l 311 639 l 199 621 l 199 613 b 235 551 200 597 204 551 b 101 367 185 490 140 429 l 42 350 l 43 343 b 61 297 46 333 50 311 b -36 86 22 228 -11 158 l -69 78 l -68 69 b -24 13 -65 54 -56 8 l 157 65 b 147 51 154 60 150 56 l 104 3 l 119 8 l 108 -11 l 118 -6 l 97 -26 z "},"f":{"ha":429,"x_min":0,"x_max":0,"o":"m -14 3 b -3 4 -10 3 -7 3 l 1 4 l 3 8 b 146 296 44 113 93 208 l 217 319 b 194 283 208 307 201 296 l 172 257 l 182 260 l 172 242 l 181 247 l 161 225 l 200 250 l 193 236 l 211 251 l 207 242 l 228 261 l 228 258 l 253 283 l 261 286 l 288 306 b 358 360 319 324 343 340 l 361 363 l 360 367 b 319 425 353 392 340 411 l 315 431 l 311 426 l 208 394 b 346 569 251 457 297 515 l 408 579 b 403 572 406 578 404 575 l 346 522 l 369 528 b 363 514 368 524 365 519 l 347 488 l 357 494 l 336 471 l 378 497 l 371 483 l 390 499 l 386 489 l 408 507 l 408 504 l 435 528 l 443 532 l 486 560 b 560 600 515 571 540 585 l 563 604 l 561 608 b 525 672 557 633 544 656 l 522 674 l 507 672 l 504 675 l 499 671 l 324 643 l 311 661 l 304 653 l 289 638 l 171 618 l 172 611 b 210 546 174 594 178 546 b 71 353 158 482 111 418 l 7 333 l 8 326 b 25 278 13 303 18 288 b -79 47 -17 203 -51 125 l -81 44 l -79 42 b -14 3 -71 21 -40 3 z "},"g":{"ha":469,"x_min":0,"x_max":0,"o":"m 71 -114 b 408 269 182 49 289 171 l 411 272 l 411 275 b 385 353 414 307 406 333 l 382 356 l 379 356 b 304 349 357 354 331 351 b 178 340 260 344 214 340 b 129 343 154 340 139 342 b 385 575 200 433 296 517 l 319 471 l 333 453 l 372 396 l 542 564 l 533 563 l 588 619 l 579 618 l 629 678 l 610 668 l 635 703 l 500 596 l 513 617 l 456 565 b 408 672 456 625 428 657 l 406 675 l 401 674 b -35 258 247 622 43 428 b -56 82 -67 188 -74 126 b 0 18 -43 56 -24 33 b 76 -3 24 4 50 -3 l 90 -3 b 56 -108 71 -44 58 -82 l 51 -142 z m 19 54 b 96 299 3 128 38 214 b 110 272 99 289 103 279 b 222 258 132 251 172 251 b 219 256 221 257 221 256 b 19 54 160 171 78 57 z "},"h":{"ha":444,"x_min":0,"x_max":0,"o":"m 214 3 l 222 3 l 228 4 l 229 8 b 583 592 299 235 418 432 l 588 596 l 586 600 b 532 665 578 631 560 653 l 528 668 l 524 664 b 322 419 444 581 378 500 b 314 425 319 421 317 422 l 310 425 b 235 417 285 424 260 421 b 394 601 282 482 336 544 l 399 604 l 397 610 b 344 675 389 640 371 663 l 339 678 l 335 674 b 110 392 243 578 169 485 l 81 383 b 100 472 93 411 100 440 l 100 496 l 85 478 b -65 331 39 418 -8 372 l -69 328 l -68 324 b -24 253 -64 294 -49 271 l -19 250 l -15 253 b 44 276 4 261 25 269 b -39 60 8 206 -19 132 l -40 57 l -39 54 b 33 13 -25 24 0 10 l 39 13 l 40 18 b 169 315 72 124 117 224 b 268 332 203 322 235 328 b 150 51 215 240 175 144 l 149 49 l 150 46 b 214 3 163 17 185 3 z "},"i":{"ha":229,"x_min":0,"x_max":0,"o":"m 389 646 b 551 824 463 706 521 768 l 567 849 l 550 840 l 575 864 l 533 840 l 539 854 l 518 838 l 522 849 l 500 831 l 500 833 l 472 810 l 463 806 l 315 707 l 317 701 b 382 644 321 671 342 653 l 386 644 z m -6 3 l 4 3 l 10 4 l 11 10 b 360 600 72 239 190 438 l 364 603 l 361 608 b 300 674 351 639 331 661 l 296 676 l 292 672 b -76 51 92 464 -29 261 l -76 49 l -75 46 b -6 3 -60 17 -36 3 z "},"j":{"ha":425,"x_min":0,"x_max":0,"o":"m 457 682 l 467 682 l 471 682 l 474 685 b 581 863 524 744 560 806 l 592 893 l 582 883 l 599 910 l 563 878 l 567 893 l 550 874 l 553 885 l 535 863 l 533 865 l 511 836 l 504 832 l 392 717 l 393 713 b 457 682 400 688 429 682 z m 74 3 b 244 228 119 22 200 151 b 428 586 313 342 382 479 b 483 585 446 586 465 586 b 454 553 472 575 463 564 l 440 535 l 415 514 l 439 524 l 438 524 l 451 531 l 453 531 l 447 521 l 460 529 l 457 524 l 475 535 l 475 533 l 496 549 l 500 550 l 553 576 l 557 575 l 558 579 l 558 583 b 542 665 564 613 558 640 l 540 668 l 536 669 b 243 646 439 682 340 674 l 239 644 l 238 640 b 257 558 231 611 239 575 l 260 556 l 264 557 b 324 572 285 563 304 568 b 26 71 235 379 93 133 b 168 328 22 157 69 242 l 174 333 l 168 339 b 82 361 144 371 115 367 l 76 361 l 75 360 b -69 68 -15 296 -64 197 l -69 64 b 71 3 -58 36 11 6 z "},"k":{"ha":436,"x_min":0,"x_max":0,"o":"m 268 21 b 281 179 294 71 299 128 b 197 285 265 222 236 260 b 549 531 346 338 476 428 l 549 532 b 518 647 572 569 561 611 l 508 656 l 506 643 b 367 485 494 600 447 546 b 168 361 311 443 240 399 b 385 600 225 442 297 519 l 388 603 l 388 607 b 326 676 382 639 361 663 l 322 678 l 303 667 b 136 575 236 642 179 611 l 111 556 l 122 558 l 94 544 l 142 554 l 132 543 l 154 551 l 147 543 l 174 553 l 174 550 l 206 563 b 35 338 138 494 81 418 b -74 57 -14 251 -50 157 l -75 53 l -71 49 b -28 21 -58 38 -44 28 b -4 4 -21 14 -12 8 l 3 0 l 7 6 b 8 8 7 7 8 7 b 13 7 10 7 11 7 l 19 6 l 119 178 l 90 154 b 93 165 92 158 93 163 l 103 196 l 97 190 l 111 214 l 96 199 l 78 182 l 82 196 l 68 178 l 68 188 l 61 178 b 99 253 72 203 85 228 b 253 22 174 211 231 126 l 257 0 z "},"l":{"ha":318,"x_min":0,"x_max":0,"o":"m 53 -6 l 47 -12 l 99 26 l 83 -3 l 100 14 l 132 40 l 178 71 l 176 63 l 251 125 l 251 129 b 210 186 246 157 232 176 l 206 186 b 64 149 160 179 113 167 b 385 608 132 322 239 478 l 388 611 l 388 615 b 343 675 386 643 372 663 l 339 676 l 335 674 b 106 418 243 596 167 510 b -28 135 47 331 3 236 l -28 133 b -22 114 -29 128 -28 121 b -107 69 -53 100 -81 86 l -111 67 l -111 63 b -76 4 -112 36 -101 15 l -72 1 l -69 4 b 124 88 -3 40 60 68 l 40 -15 z "},"m":{"ha":525,"x_min":0,"x_max":0,"o":"m -33 8 b 221 453 18 169 104 319 b 196 369 208 424 200 396 l 196 367 b 281 299 207 333 235 311 l 285 299 l 365 367 b 231 63 294 263 250 163 l 231 60 l 232 57 b 299 13 246 28 268 14 l 306 13 l 307 19 b 681 578 360 224 485 413 l 685 582 l 683 586 b 633 660 675 621 658 644 l 629 663 l 297 400 b 403 586 322 456 357 517 l 404 589 l 404 592 b 326 674 396 638 369 665 l 322 674 l 319 672 b -108 54 107 504 -32 301 l -110 51 l -108 49 b -42 3 -97 19 -75 4 l -36 3 z "},"n":{"ha":461,"x_min":0,"x_max":0,"o":"m 646 629 b 590 675 639 654 621 669 l 588 678 l 583 676 l 581 676 l 579 675 b 450 601 526 654 483 631 l 426 581 l 428 581 l 407 571 l 431 575 l 429 575 l 436 576 l 451 581 l 442 571 l 460 578 l 454 571 l 478 579 l 476 578 l 504 589 b 242 229 421 493 322 371 b 325 549 263 333 292 440 l 326 551 l 325 554 b 265 610 308 582 289 600 l 256 614 l 256 610 b 249 614 253 611 250 613 l 243 618 l 238 613 b -122 49 83 447 -37 257 l -124 47 l -124 44 b -64 4 -117 21 -97 7 l -61 1 l -56 4 b 54 108 -8 38 28 72 l 72 135 l 88 150 l 67 139 l 68 139 l 49 129 l 54 140 l 39 129 l 42 138 l 22 124 l 22 125 l -3 107 l -8 106 l -10 104 b 204 438 46 219 117 329 b 143 103 174 313 153 203 l 142 99 l 144 96 b 239 69 171 69 201 61 l 242 71 l 243 74 b 644 622 374 299 501 472 l 647 625 z "},"o":{"ha":367,"x_min":0,"x_max":0,"o":"m 65 3 b 99 8 76 3 88 4 l 100 8 b 435 569 271 108 421 417 b 413 642 438 596 429 622 b 357 671 399 658 378 669 l 343 671 l 350 658 b 344 551 360 642 358 603 b 24 61 306 404 174 154 b 25 149 15 81 15 111 b 338 568 60 279 207 496 l 342 569 l 342 575 b 294 639 343 606 326 628 l 290 640 l 288 639 b 47 419 199 593 114 515 b -69 126 -21 324 -62 219 b -10 28 -69 90 -47 53 b 65 3 14 11 40 3 z "},"p":{"ha":408,"x_min":0,"x_max":0,"o":"m -6 -1 l -3 -1 l -1 3 b 97 104 42 35 74 69 l 114 132 l 114 131 l 131 147 l 110 135 l 110 136 l 104 132 l 92 125 l 97 136 l 82 125 l 85 133 l 67 118 l 67 121 l 47 104 b 131 261 72 156 99 207 b 147 260 136 260 142 260 l 158 260 b 325 324 203 263 264 286 b 463 443 383 360 435 404 l 463 446 b 399 663 506 567 440 642 l 399 664 b 246 649 367 676 308 671 b 89 546 178 625 121 588 l 88 544 l 88 540 b 121 479 89 517 96 499 l 126 475 l 132 481 b 235 556 156 504 193 533 b -68 40 93 378 -7 208 l -69 36 l -67 33 b -12 -1 -50 14 -36 0 l -10 -4 z m 185 347 b 335 539 228 413 278 476 l 338 543 l 336 546 b 321 588 333 564 329 578 b 425 574 361 597 399 596 b 185 347 438 490 289 389 z "},"q":{"ha":369,"x_min":0,"x_max":0,"o":"m 65 -1 b 100 4 78 -1 89 0 l 101 6 b 225 115 144 31 186 68 b 346 36 275 96 318 68 l 356 24 l 360 39 b 340 139 369 75 363 108 b 281 189 325 158 304 175 b 438 569 368 318 429 474 b 415 642 440 594 432 621 b 360 671 401 658 381 669 l 344 671 l 353 658 b 347 551 363 642 361 603 b 189 224 324 460 265 332 b 107 236 158 232 129 235 l 103 236 l 100 233 b 94 144 79 207 78 176 l 97 140 l 101 140 b 119 139 108 140 114 139 b 24 58 89 106 57 78 b 26 144 15 78 17 107 b 339 567 60 278 208 496 l 343 569 l 343 574 b 296 639 344 606 328 628 l 293 640 l 289 639 b 47 418 200 593 114 514 b -69 124 -21 321 -62 217 l -69 122 b -10 24 -69 88 -47 50 b 65 -1 14 7 40 -1 z "},"r":{"ha":501,"x_min":0,"x_max":0,"o":"m 51 -1 b 78 3 60 -1 68 0 l 83 4 l 83 10 b 139 217 92 82 110 150 b 364 42 240 192 319 131 l 372 25 l 379 43 b 350 179 394 89 385 135 b 243 268 321 218 278 247 b 501 486 353 333 472 407 l 503 488 b 429 663 513 550 478 635 l 428 663 b 246 635 379 679 314 669 b 86 507 183 604 125 558 l 83 506 l 83 503 b 132 431 85 469 101 446 l 142 426 l 144 436 b 253 536 151 465 196 504 b 100 335 189 467 138 400 b 0 32 42 235 10 136 l 0 29 l 1 26 b 51 -1 14 8 31 -1 z m 217 351 b 367 515 257 407 307 461 l 369 518 l 368 522 b 342 574 365 543 357 560 b 450 575 389 588 428 589 b 332 429 443 533 403 485 b 217 351 294 400 254 374 z "},"s":{"ha":393,"x_min":0,"x_max":0,"o":"m 463 519 l 314 411 b 385 485 335 436 363 463 b 446 560 428 526 447 547 b 408 653 443 603 425 639 b 389 660 401 658 396 661 b 314 640 365 660 342 653 b 286 669 307 653 299 663 l 283 671 l 281 669 b 81 522 207 651 131 594 l 79 522 b 139 332 39 450 93 388 b 185 274 157 311 174 292 b 14 89 196 214 88 136 l 86 289 l 104 324 l 100 326 l 97 328 l 101 335 l 99 338 l 104 344 l 90 353 b 72 325 83 343 78 335 b -69 69 19 244 -35 160 l -69 65 b -32 17 -68 51 -53 31 b 21 0 -21 10 -3 0 b 53 7 31 0 42 3 l 54 7 b 250 182 176 71 238 126 b 188 325 261 235 225 278 b 154 369 176 339 164 354 b 142 439 139 390 135 414 b 319 589 160 501 244 560 l 321 590 b 376 613 340 604 360 613 l 347 583 b 235 456 306 542 261 497 b 225 338 204 407 200 368 b 269 288 233 317 249 300 l 275 285 l 404 411 l 388 404 l 435 458 l 426 454 l 449 482 l 442 478 l 461 501 l 433 482 z "},"t":{"ha":501,"x_min":0,"x_max":0,"o":"m 94 4 b 186 140 133 51 164 96 l 192 151 l 239 214 l 207 188 l 229 226 l 185 179 l 182 182 l 171 172 l 171 174 l 136 144 b 403 538 208 294 296 424 l 456 542 l 399 486 l 436 501 l 415 485 l 435 493 l 421 482 l 458 499 l 453 494 l 465 500 l 447 485 l 515 518 l 513 511 l 599 550 l 599 556 b 578 629 599 583 592 607 l 575 632 l 571 632 b 250 608 464 633 357 625 b 282 656 263 624 274 639 l 299 683 l 292 679 l 311 699 l 292 688 l 271 674 l 276 688 l 260 672 l 263 682 l 243 664 l 243 667 l 218 644 l 210 642 l 119 581 l 119 575 l 119 574 b 149 500 119 539 129 514 l 151 497 l 156 499 b 271 521 194 507 233 515 b 15 57 147 382 61 225 l 14 53 l 15 50 b 86 3 29 26 51 11 l 92 1 z "},"u":{"ha":446,"x_min":0,"x_max":0,"o":"m 532 678 l 519 672 b 351 581 451 649 394 618 l 326 561 l 336 563 l 311 550 l 357 560 l 346 549 l 368 557 l 361 549 l 378 554 b 224 372 319 499 268 438 b 101 138 175 300 133 221 l 14 106 b 311 550 71 278 192 425 l 350 589 l 351 592 l 351 596 b 318 667 350 624 339 647 l 315 674 l 311 672 l 308 675 l 303 669 b 140 579 238 646 182 615 l 115 560 l 125 561 l 99 549 l 146 558 l 135 547 l 157 556 l 150 547 l 176 557 l 175 554 l 200 564 b -11 285 113 469 38 368 b -67 150 -40 233 -58 188 b -47 54 -74 108 -68 76 b -8 -1 -40 32 -28 14 l -4 -6 l 94 53 b 160 -4 101 18 125 -1 l 167 -4 l 168 1 b 283 150 219 50 258 100 l 297 179 l 289 174 l 308 196 l 269 168 l 275 182 l 257 165 l 260 176 l 240 157 l 240 160 l 217 135 l 208 131 l 200 124 b 551 574 256 276 374 428 l 553 575 l 554 578 b 531 668 564 621 556 651 z "},"v":{"ha":414,"x_min":0,"x_max":0,"o":"m 14 -1 b 25 0 18 -1 21 -1 l 29 0 l 31 4 b 568 604 171 250 346 446 l 572 608 l 571 614 b 504 672 561 649 538 668 l 501 672 l 499 671 b 229 431 401 599 311 518 b 36 183 160 356 94 272 b 281 550 79 315 161 439 l 283 553 l 283 556 b 265 600 282 575 276 590 b 218 614 254 610 239 615 l 215 614 l 214 611 b -67 46 4 415 -87 231 b -54 24 -67 39 -62 31 b 14 -1 -39 11 -11 -1 z "},"w":{"ha":561,"x_min":0,"x_max":0,"o":"m -3 -1 b 38 7 10 -1 24 1 l 40 8 l 42 10 b 238 274 93 101 158 190 b 221 68 196 161 190 94 l 213 53 l 215 49 b 279 17 229 22 257 17 l 283 17 l 286 21 b 756 596 418 263 571 450 l 760 599 l 760 603 b 713 671 757 640 742 663 l 708 671 l 706 669 b 454 426 610 592 525 510 b 311 226 400 363 351 294 b 399 413 332 286 361 349 l 400 415 l 399 418 b 332 472 388 454 365 472 l 326 472 l 297 411 b 63 172 213 343 133 263 b 351 568 122 307 222 443 l 356 571 l 354 576 b 286 635 347 613 325 632 l 282 635 l 279 632 b 47 350 207 551 115 453 b -69 31 -26 238 -65 133 l -69 28 l -68 26 b -3 -1 -57 10 -32 -1 z "},"x":{"ha":521,"x_min":0,"x_max":0,"o":"m 325 -1 b 371 22 347 -1 361 11 l 374 26 l 372 31 b 269 340 318 146 290 235 b 581 585 365 428 468 508 l 582 586 l 583 589 b 585 643 592 611 592 629 b 546 669 578 656 565 664 l 542 671 l 539 668 b 253 442 435 594 339 518 b 231 628 244 496 238 557 l 229 632 l 226 633 b 133 619 192 651 161 647 l 129 617 l 131 613 b 140 544 133 589 136 567 b 167 361 150 474 157 414 b -96 54 65 263 -24 160 l -97 53 l -97 50 b -86 21 -97 38 -94 28 b -40 6 -76 10 -62 6 l -36 6 l -33 8 b 188 261 38 99 110 183 b 283 13 207 183 235 110 l 285 10 l 288 8 b 325 -1 301 1 314 -1 z "},"y":{"ha":317,"x_min":0,"x_max":0,"o":"m 0 -12 b 106 111 39 24 74 65 l 110 117 l 163 161 l 115 136 l 160 182 l 140 171 l 164 197 l 115 164 l 110 169 l 58 124 b 150 254 83 167 114 211 l 171 218 l 168 236 l 193 204 l 176 246 l 197 225 l 192 238 l 188 257 l 186 269 l 192 269 l 188 299 b 511 578 272 392 378 482 l 515 581 l 514 585 b 460 654 507 622 489 644 l 456 654 l 453 653 b 175 417 353 588 257 506 b 158 626 168 482 164 553 l 158 631 l 157 632 b 72 651 131 657 103 663 l 67 649 l 67 643 b 113 343 74 517 88 418 b -68 25 26 238 -35 128 l -69 21 l -67 17 b -6 -14 -53 -1 -32 -12 l -3 -15 z "},"z":{"ha":467,"x_min":0,"x_max":0,"o":"m 122 -18 l 118 -32 l 136 -14 l 133 -24 l 154 -3 l 154 -6 l 178 22 l 188 26 l 228 61 b 300 113 261 78 285 94 l 303 115 l 301 119 b 256 178 294 144 279 164 l 253 181 l 238 175 l 233 178 l 229 174 l 10 108 b 568 569 158 308 340 458 l 571 571 l 572 575 b 553 656 582 610 575 638 l 551 657 l 549 657 b 378 635 501 661 438 647 b 183 633 293 618 206 600 l 174 647 l 168 631 b 179 551 158 594 163 568 b 357 549 211 521 282 529 b -122 54 143 411 -14 249 l -125 49 l -121 44 b -93 28 -112 36 -103 31 b -57 7 -82 8 -68 6 l 144 69 b 139 61 143 67 142 64 l 88 3 l 111 13 b 106 -1 110 7 107 3 l 92 -32 l 103 -24 l 83 -49 z "},"{":{"ha":524,"x_min":0,"x_max":0,"o":"m 181 -35 b 179 308 90 74 239 231 b 454 731 300 386 292 656 b 78 354 193 885 290 426 b 124 303 79 326 93 308 b 181 -35 96 168 -10 7 z "},"}":{"ha":524,"x_min":0,"x_max":0,"o":"m 69 -3 b 446 374 331 -157 233 301 b 400 425 444 401 429 419 b 343 761 426 560 533 721 b 344 419 433 654 283 497 b 69 -3 222 342 232 71 z "},"~":{"ha":671,"x_min":0,"x_max":0,"o":"m 601 332 b 69 431 611 564 138 289 b 601 332 63 176 461 390 z "}," ":{"ha":511,"x_min":0,"x_max":0,"o":""},"­":{"ha":0,"x_min":0,"x_max":0,"o":""}}}
